<svg width="96" height="96" viewBox="0 0 96 96" fill="none" xmlns="http://www.w3.org/2000/svg">
<rect width="96" height="96" rx="20" fill="url(#paint0_linear_17_24)"/>
<path d="M44.7018 27.1994L31.3435 34.6155C30.3009 35.1966 29.433 36.0463 28.8299 37.0763C28.2267 38.1063 27.9104 39.279 27.9136 40.4725V54.8605C27.9108 56.0537 28.2273 57.2259 28.8305 58.2554C29.4336 59.285 30.3013 60.1343 31.3435 60.7153L44.7063 68.1336C45.7004 68.6868 46.8191 68.9771 47.9567 68.9771C49.0943 68.9771 50.2131 68.6868 51.2072 68.1336L64.57 60.7176C65.6125 60.1364 66.4804 59.2867 67.0836 58.2567C67.6867 57.2268 68.0031 56.0541 67.9999 54.8605V40.4725C68.0027 39.2793 67.6861 38.1071 67.083 37.0776C66.4799 36.048 65.6122 35.1987 64.57 34.6177L51.2072 27.1994C50.2131 26.6463 49.0943 26.356 47.9567 26.356C46.8191 26.356 45.7004 26.6463 44.7063 27.1994H44.7018Z" stroke="black" stroke-width="4"/>
<path d="M66.6404 36.4419L47.9544 47.6669M47.9544 47.6669L29.2684 36.4419M47.9544 47.6669V68.9551" stroke="black" stroke-width="4"/>
<defs>
<linearGradient id="paint0_linear_17_24" x1="11.3333" y1="6.02096" x2="106.312" y2="101" gradientUnits="userSpaceOnUse">
<stop stop-color="#FFD200"/>
<stop offset="1" stop-color="#FFA900"/>
</linearGradient>
</defs>
</svg>
